<svg xmlns="http://www.w3.org/2000/svg" viewBox="0 0 1200 600" font-family="'Segoe UI', Arial, sans-serif">
  <defs>
    <linearGradient id="flowHeader" x1="0%" y1="0%" x2="100%" y2="0%">
      <stop offset="0%" style="stop-color:#00695c"/>
      <stop offset="100%" style="stop-color:#004d40"/>
    </linearGradient>
    <filter id="shadow" x="-5%" y="-5%" width="110%" height="110%">
      <feDropShadow dx="2" dy="3" stdDeviation="4" flood-opacity="0.15"/>
    </filter>
  </defs>

  <rect width="1200" height="600" fill="#f5f7fb"/>

  <rect x="0" y="0" width="1200" height="60" fill="url(#flowHeader)"/>
  <text x="600" y="38" text-anchor="middle" fill="white" font-size="22" font-weight="bold">Resource Management Workflow</text>

  <rect x="80" y="100" width="180" height="80" rx="10" fill="#e0f2f1" stroke="#00695c" stroke-width="2" filter="url(#shadow)"/>
  <text x="170" y="135" text-anchor="middle" fill="#004d40" font-size="15" font-weight="bold">User Action</text>
  <text x="170" y="158" text-anchor="middle" fill="#00695c" font-size="12">Add / Edit / Delete</text>

  <text x="290" y="145" text-anchor="middle" fill="#37474f" font-size="22">→</text>

  <rect x="330" y="100" width="180" height="80" rx="10" fill="#e3f2fd" stroke="#1565c0" stroke-width="2" filter="url(#shadow)"/>
  <text x="420" y="135" text-anchor="middle" fill="#0d47a1" font-size="15" font-weight="bold">React Client</text>
  <text x="420" y="158" text-anchor="middle" fill="#1565c0" font-size="12">Form Validation</text>

  <text x="540" y="145" text-anchor="middle" fill="#37474f" font-size="22">→</text>

  <rect x="580" y="100" width="180" height="80" rx="10" fill="#e8f5e9" stroke="#2e7d32" stroke-width="2" filter="url(#shadow)"/>
  <text x="670" y="135" text-anchor="middle" fill="#1b5e20" font-size="15" font-weight="bold">Controller</text>
  <text x="670" y="158" text-anchor="middle" fill="#2e7d32" font-size="12">REST API</text>

  <text x="790" y="145" text-anchor="middle" fill="#37474f" font-size="22">→</text>

  <rect x="830" y="100" width="180" height="80" rx="10" fill="#fff3e0" stroke="#e65100" stroke-width="2" filter="url(#shadow)"/>
  <text x="920" y="135" text-anchor="middle" fill="#bf360c" font-size="15" font-weight="bold">MongoDB</text>
  <text x="920" y="158" text-anchor="middle" fill="#e65100" font-size="12">Save / Update</text>

  <text x="1040" y="145" text-anchor="middle" fill="#37474f" font-size="22">→</text>

  <rect x="1080" y="100" width="80" height="80" rx="10" fill="#f3e5f5" stroke="#7b1fa2" stroke-width="2" filter="url(#shadow)"/>
  <text x="1120" y="140" text-anchor="middle" fill="#4a148c" font-size="13" font-weight="bold">Result</text>

  <rect x="80" y="220" width="320" height="90" rx="8" fill="#e8eaf6"/>
  <text x="100" y="248" fill="#283593" font-size="14" font-weight="bold">CREATE RESOURCE</text>
  <text x="100" y="270" fill="#3949ab" font-size="12">POST /api/resources</text>
  <text x="100" y="290" fill="#5c6bc0" font-size="11">Fields: Name, Type, Capacity, Location, Status</text>

  <rect x="440" y="220" width="320" height="90" rx="8" fill="#e8eaf6"/>
  <text x="460" y="248" fill="#283593" font-size="14" font-weight="bold">EDIT RESOURCE</text>
  <text x="460" y="270" fill="#3949ab" font-size="12">PUT /api/resources/{id}</text>
  <text x="460" y="290" fill="#5c6bc0" font-size="11">Pre-filled form → Update document</text>

  <rect x="800" y="220" width="320" height="90" rx="8" fill="#ffebee"/>
  <text x="820" y="248" fill="#b71c1c" font-size="14" font-weight="bold">DELETE RESOURCE</text>
  <text x="820" y="270" fill="#d32f2f" font-size="12">DELETE /api/resources/{id}</text>
  <text x="820" y="290" fill="#e57373" font-size="11">Single or Bulk with confirmation</text>

  <rect x="150" y="350" width="900" height="50" rx="8" fill="#eceff1"/>
  <text x="600" y="370" text-anchor="middle" fill="#37474f" font-size="14" font-weight="bold">CRUD Operations Flow</text>
  <text x="600" y="390" text-anchor="middle" fill="#546e7f" font-size="12">
    User Action → Frontend Validation → Backend Processing → Database Operation → Response
  </text>

  <rect x="200" y="430" width="800" height="55" rx="8" fill="#e0f7fa"/>
  <text x="600" y="455" text-anchor="middle" fill="#006064" font-size="13" font-weight="bold">Bulk Operations</text>
  <text x="600" y="475" text-anchor="middle" fill="#00838f" font-size="12">
    Bulk Delete: Select multiple → Confirm → Sequential DELETE requests
  </text>

  <rect x="250" y="515" width="700" height="45" rx="8" fill="#fff8e1"/>
  <text x="600" y="538" text-anchor="middle" fill="#e65100" font-size="13" font-weight="bold">Validation Rules</text>
  <text x="600" y="555" text-anchor="middle" fill="#f57c00" font-size="12">
    Required fields: Name, Type, Location | Capacity must be positive | Status enum validation
  </text>
</svg>